<svg id="Grupo_132813" data-name="Grupo 132813" xmlns="http://www.w3.org/2000/svg" xmlns:xlink="http://www.w3.org/1999/xlink" width="207" height="264" viewBox="0 0 207 264">
  <defs>
    <clipPath id="clip-path">
      <path id="Trazado_188103" data-name="Trazado 188103" d="M182.8,40.873a96.95,96.95,0,0,1,9.673,17.355c20.284,44.75,11.826,94.587,9.008,109.987-4.552,24.846-7.9,45.84-21.032,63.451-29.825,40.018-88.373,35.578-123.387,2.6-4.151-3.911-38.031-36.8-40.9-87.216-.07-1.233-.1-2.153-.132-2.957-.3-7.794-1.576-56.066,24.894-94.279A103.634,103.634,0,0,1,61.625,27.587C98.667-1.581,154.062.624,182.8,40.873Z" transform="translate(-15.919 -7.874)" fill="none"/>
    </clipPath>
  </defs>
  <path id="Trazado_188103-2" data-name="Trazado 188103" d="M182.8,40.873a96.95,96.95,0,0,1,9.673,17.355c20.284,44.75,11.826,94.587,9.008,109.987-4.552,24.846-7.9,45.84-21.032,63.451-29.825,40.018-88.373,35.578-123.387,2.6-4.151-3.911-38.031-36.8-40.9-87.216-.07-1.233-.1-2.153-.132-2.957-.3-7.794-1.576-56.066,24.894-94.279A103.634,103.634,0,0,1,61.625,27.587C98.667-1.581,154.062.624,182.8,40.873Z" transform="translate(-4.727 -2.338)" fill="#e5e1f1"/>
  <g id="Grupo_132813-2" data-name="Grupo 132813" transform="translate(101.875 8.537)">
    <circle id="Elipse_5243" data-name="Elipse 5243" cx="50.037" cy="50.037" r="50.037" fill="#fdb74d" opacity="0.8" style="isolation: isolate"/>
    <circle id="Elipse_5247" data-name="Elipse 5247" cx="19.181" cy="19.181" r="19.181" transform="translate(57.888 108.991)" fill="#8c6df2" opacity="0.7" style="isolation: isolate"/>
    <g id="Elipse_5249" data-name="Elipse 5249" transform="translate(65.327 116.545)">
      <circle id="Elipse_5354" data-name="Elipse 5354" cx="7.228" cy="7.228" r="7.228" fill="none"/>
      <circle id="Elipse_5355" data-name="Elipse 5355" cx="6.394" cy="6.394" r="6.394" transform="translate(0.834 0.834)" fill="none" stroke="#fff" stroke-width="2.372"/>
    </g>
    <g id="Elipse_5250" data-name="Elipse 5250" transform="translate(17.235 60.601)">
      <circle id="Elipse_5356" data-name="Elipse 5356" cx="3.892" cy="3.892" r="3.892" fill="none"/>
      <circle id="Elipse_5357" data-name="Elipse 5357" cx="3.058" cy="3.058" r="3.058" transform="translate(0.834 0.834)" fill="none" stroke="#8c6df2" stroke-width="2.372"/>
    </g>
    <circle id="Elipse_5251" data-name="Elipse 5251" cx="2.502" cy="2.502" r="2.502" transform="translate(46.146 47.258)" fill="#8c6df2"/>
  </g>
  <path id="Trazado_139920" data-name="Trazado 139920" d="M15.343,11.13a3.753,3.753,0,0,0-.354-.174,2.521,2.521,0,0,0-3.6,2.137,4.627,4.627,0,0,0,2.579,4.74,86.59,86.59,0,0,1,17.178,9.894A102.662,102.662,0,0,1,46.6,41.656l.893.977.865,1c.581.667,1.142,1.351,1.7,2.037q1.685,2.051,3.243,4.206c.527.712,1.02,1.45,1.53,2.17s.98,1.474,1.47,2.206c.463.754.944,1.49,1.387,2.258s.9,1.516,1.313,2.29.845,1.534,1.235,2.316c.2.39.4.774.587,1.166l.555,1.176c.384.778.7,1.576,1.054,2.358.325.791.648,1.58.948,2.371s.593,1.581.839,2.375c.126.4.264.79.385,1.185l.343,1.181c.056.2.118.392.169.592l.15.609.3,1.212c.168.815.355,1.621.5,2.435A80.268,80.268,0,0,1,67.1,97.306c-.375,6.527-1.291,13.058-2.253,19.838-.477,3.393-.986,6.841-1.431,10.41-.231,1.777-.427,3.6-.615,5.437-.084.931-.179,1.853-.251,2.8l-.212,2.757c-.529,7.061-.987,14.374-1.019,22.046a155.342,155.342,0,0,0,1.675,24.312,110.049,110.049,0,0,0,2.873,13.272,95.124,95.124,0,0,0,5.085,13.831c1.067,2.315,2.251,4.621,3.546,6.886.646,1.135,1.328,2.255,2.029,3.368.353.554.694,1.091,1.076,1.654s.764,1.128,1.159,1.678a77.372,77.372,0,0,0,10.551,12.035c.965.89,1.942,1.758,2.942,2.584.526.442.934.762,1.381,1.131l1.325,1.069c.887.71,1.8,1.393,2.721,2.068s1.865,1.318,2.8,1.975a81.418,81.418,0,0,0,11.958,6.729,68.7,68.7,0,0,0,12.758,4.393,63.282,63.282,0,0,0,36.508-2.168,80.741,80.741,0,0,0,19.779-10.493,97.379,97.379,0,0,0,8.64-6.968c1.386-1.259,2.745-2.568,4.1-3.96.676-.7,1.354-1.415,2.042-2.18.345-.384.69-.775,1.052-1.2l.559-.674.3-.387.18-.238.258-.363C206.5,216.6,202.9,196.932,190.6,185.03s-28.67-11.54-36.546.81l.1-.121c.026-.027.02-.008.02-.008l0,.013c.008.009-.01.06-.015.091a2.6,2.6,0,0,1-.1.272c-.074.2-.18.431-.284.66-.214.465-.458.959-.718,1.45-.527.989-1.1,1.995-1.709,2.981a58.134,58.134,0,0,1-3.963,5.687,49.434,49.434,0,0,1-9.2,9.135A30.911,30.911,0,0,1,128,211.115a22.618,22.618,0,0,1-5.38.828,24.913,24.913,0,0,1-5.7-.458,31.9,31.9,0,0,1-6.111-1.834c-.525-.235-1.056-.444-1.591-.691-.533-.264-1.072-.5-1.612-.781l-1.566-.82c-.414-.2-.825-.438-1.234-.669a25.057,25.057,0,0,1-4.626-3.524c-.183-.169-.359-.348-.536-.525l-.564-.6c-.375-.409-.748-.827-1.109-1.268-.727-.877-1.436-1.813-2.123-2.821a58.052,58.052,0,0,1-6.98-15.056q-.712-2.2-1.308-4.5t-1.112-4.7c-.686-3.184-1.266-6.467-1.763-9.814-1-6.7-1.647-13.634-2.218-20.766l-.2-2.558c-.066-.826-.112-1.663-.169-2.5-.093-1.685-.176-3.381-.232-5.108-.12-3.442-.175-6.965-.217-10.548-.1-7.168-.181-14.623-.893-22.368a106.03,106.03,0,0,0-4.669-23.694c-.316-.984-.681-1.964-1.025-2.94-.382-.976-.736-1.933-1.143-2.913l-.6-1.462c-.208-.482-.428-.957-.642-1.434-.418-.959-.892-1.886-1.346-2.817a90.476,90.476,0,0,0-6.249-10.453A121.212,121.212,0,0,0,50.1,36.722,151.348,151.348,0,0,0,33.277,22.569,187.035,187.035,0,0,0,15.362,11.138Z" transform="translate(-3.371 -3.182)" fill="#fdb74d"/>
  <g id="Grupo_132814" data-name="Grupo 132814" transform="translate(42.083 6.832)">
    <path id="Trazado_189304" data-name="Trazado 189304" d="M78.932,19.563l14.354-6.488,82.29,86.86-17.616,7.812Z" transform="translate(-65.52 -10.714)" fill="#ed5353"/>
    <path id="Trazado_189305" data-name="Trazado 189305" d="M102.485,72.627l50.756,25.8c19.972,10.154,39.989-6.486,36.033-29.951l-.393-2.329c-1.836-10.891-8.677-20.5-17.946-25.214L115.314,12.658C95.983,2.83,76.607,18.936,80.437,41.649h0C82.693,55.028,91.1,66.837,102.485,72.627Z" transform="translate(-65.822 -9.717)" fill="#5038a1"/>
    <path id="Trazado_189306" data-name="Trazado 189306" d="M201.313,121.952l-3.977,36.3a3.434,3.434,0,0,1-6.063,1.827l-28.215-30.889Z" transform="translate(-90.499 -43.042)" fill="#5038a1"/>
    <path id="Trazado_189307" data-name="Trazado 189307" d="M82.392,81.695,133.149,107.5c19.971,10.153,39.989-6.487,36.033-29.952l-.393-2.329c-1.836-10.891-8.677-20.5-17.945-25.214L95.221,21.726C75.89,11.9,56.514,28,60.344,50.717h0C62.6,64.1,71,75.906,82.392,81.695Z" transform="translate(-59.856 -12.41)" fill="#edf4ff"/>
    <path id="Trazado_189308" data-name="Trazado 189308" d="M82.392,81.695,133.149,107.5c19.971,10.153,39.989-6.487,36.033-29.952l-.393-2.329c-1.836-10.891-8.677-20.5-17.945-25.214L95.221,21.726C75.89,11.9,56.514,28,60.344,50.717h0C62.6,64.1,71,75.906,82.392,81.695Z" transform="translate(-59.856 -12.41)" fill="none" stroke="#8c6df2" stroke-linecap="round" stroke-linejoin="round" stroke-width="3.177"/>
    <ellipse id="Elipse_5358" data-name="Elipse 5358" cx="6.658" cy="11.553" rx="6.658" ry="11.553" transform="translate(68.451 56.651) rotate(-27.426)" fill="#fdb74d"/>
    <ellipse id="Elipse_5359" data-name="Elipse 5359" cx="6.658" cy="11.553" rx="6.658" ry="11.553" transform="matrix(0.888, -0.461, 0.461, 0.888, 42.472, 44.376)" fill="#fdb74d"/>
    <ellipse id="Elipse_5360" data-name="Elipse 5360" cx="6.658" cy="11.553" rx="6.658" ry="11.553" transform="translate(19.006 33.431) rotate(-27.425)" fill="#fdb74d"/>
  </g>
  <g id="Grupo_132820" data-name="Grupo 132820" transform="translate(11.192 5.536)">
    <g id="Grupo_132819" data-name="Grupo 132819" clip-path="url(#clip-path)">
      <g id="Grupo_132818" data-name="Grupo 132818" transform="translate(21.299 86.038)">
        <path id="Trazado_189309" data-name="Trazado 189309" d="M49.53,130.289h0a3.89,3.89,0,0,0-3.276,4.4l1.079,7.338a3.89,3.89,0,0,0,4.4,3.273h0a3.89,3.89,0,0,0,3.276-4.4l-1.079-7.338A3.89,3.89,0,0,0,49.53,130.289Z" transform="translate(-46.213 -130.248)" fill="#ffb27d"/>
        <path id="Trazado_189310" data-name="Trazado 189310" d="M108.752,189.949S76.7,195.585,73.571,187.1s-16.415-40.536-16.415-40.536l-10.943,2.606s9.641,55.5,18.76,60.187,38.3,3.784,38.3,3.784Z" transform="translate(-46.213 -135.092)" fill="#f2f2f2"/>
        <path id="Trazado_189311" data-name="Trazado 189311" d="M175.067,515.926c-9.319-5.032-24.911-5.4-35.375-.944-.942-2.14-2.983-4.181-6.158-5.9-9.6-5.182-25.849-5.421-36.3-.533s-11.145,13.053-1.548,18.235c9.318,5.032,24.911,5.4,35.375.944.942,2.14,2.983,4.181,6.158,5.9,9.6,5.182,25.849,5.421,36.3.533S184.663,521.108,175.067,515.926Z" transform="translate(-58.893 -241.533)" fill="#a8c4e5" opacity="0.4" style="mix-blend-mode: multiply;isolation: isolate"/>
        <path id="Trazado_189312" data-name="Trazado 189312" d="M157.586,205.5s7.626,2.122,7.619,6.037a42.426,42.426,0,0,1-.757,7.525l-25.631-5.4,2.655-10.581Z" transform="translate(-73.71 -151.874)" fill="#8c6df2"/>
        <path id="Trazado_189313" data-name="Trazado 189313" d="M106.374,507.629l14.184-9.725a12.71,12.71,0,0,1,7.6.03c1.311.384,1.556-.6,1.444.632l1.225,5.218c1.2,3.493-1.57,5.6-5.56,6.8l-13.559,3.877c-2.809.909-6.768.4-8.8-1.138l-.575-.435C100.308,511.356,103.372,509.255,106.374,507.629Z" transform="translate(-62.683 -239.247)" fill="#27427a"/>
        <path id="Trazado_189314" data-name="Trazado 189314" d="M137.139,494.651c-.23,4.046-10.071,3.486-9.841-.56l.748-13.149,9.841.56Z" transform="translate(-70.288 -234.378)" fill="#6f7996"/>
        <path id="Trazado_189315" data-name="Trazado 189315" d="M136.191,437.117c-4.138,3.078-8.258,2.949-12.36-.326,0,0-6.914-81.316-4.613-123.08l31.018-9.685c-3.891,25.608-12.335,67.656-12.335,67.656C146.894,392.76,138.786,418.842,136.191,437.117Z" transform="translate(-67.751 -181.847)" fill="#27427a"/>
        <path id="Trazado_189316" data-name="Trazado 189316" d="M153.33,304.026l-8.7,2.716c-2.383,15.172-6.093,35.006-8.74,48.743a74.824,74.824,0,0,0,0,27.094c3.267,18.657-2.724,39.308-4.886,54.537a13.276,13.276,0,0,1-1.837,1.148c3.359,1.738,6.731,1.369,10.115-1.148,2.307-16.245,8.97-38.657,4.105-58.241a41.293,41.293,0,0,1-.3-17.841C145.854,346.873,150.663,321.585,153.33,304.026Z" transform="translate(-70.845 -181.847)" fill="#223a6b"/>
        <path id="Trazado_189317" data-name="Trazado 189317" d="M186.424,509.322c.416,4.031-9.388,5.045-9.805,1.014l-1.353-13.1,9.8-1.014Z" transform="translate(-84.532 -238.915)" fill="#6f7996"/>
        <path id="Trazado_189318" data-name="Trazado 189318" d="M178.078,451.47c-4.221,3.444-8.321,4.044-12.284,1.4,0,0-3.518-27.006-9.048-55.77-4.28-22.264-10.621-44.626-12.077-62.346l28.818-16.8c-.255,15.751.918,50.422,1.462,65.3a24.92,24.92,0,0,0,2.522,9.992C184.09,406.873,178.078,451.47,178.078,451.47Z" transform="translate(-75.447 -185.984)" fill="#27427a"/>
        <path id="Trazado_189319" data-name="Trazado 189319" d="M115.86,286.022a491.093,491.093,0,0,0,.255-53.092c1.708-24.731,11.684-33.239,26.872-26.478l6.319,2.154c18.106,11.428,27.691,11.58,22.954,31.249L167.8,287.022C166.253,309.48,112.839,312.341,115.86,286.022Z" transform="translate(-66.856 -152.211)" fill="#f2f2f2"/>
        <path id="Trazado_189320" data-name="Trazado 189320" d="M179.828,254.9l-4.457,47.168c-.9,13.1-19.446,19.529-34.147,17.4C158.628,310.747,170.642,286.815,179.828,254.9Z" transform="translate(-74.424 -167.262)" fill="#ccc"/>
        <g id="Grupo_132816" data-name="Grupo 132816" transform="translate(66.539 49.33)">
          <g id="Grupo_132815" data-name="Grupo 132815">
            <path id="Trazado_189321" data-name="Trazado 189321" d="M164.32,211.85s.5,6.839-9.792,11.732c-5.308,2.524-8.216,7.261-9.788,11.255-.918,2.333-2.223,1.036-2.29-1.505-.174-6.612-.253-8.533-1.242-13.493-1.6-8.025,2.7-19.375,3.134-19.427S164.32,211.85,164.32,211.85Z" transform="translate(-140.853 -200.411)" fill="#fff"/>
          </g>
        </g>
        <path id="Trazado_189322" data-name="Trazado 189322" d="M150.3,205.393s-9.669,2.2-8.259,11.24l-.681,10.512s-6.284-12.515-1.938-23.359S150.3,205.393,150.3,205.393Z" transform="translate(-73.435 -150.766)" fill="#8c6df2"/>
        <path id="Trazado_189323" data-name="Trazado 189323" d="M149.957,199.153s1.491,2.871,2.535,3.513,16.73-4.789,16.3-17.379c-.27-7.973-15.408-7.265-15.408-7.265Z" transform="translate(-77.017 -144.429)" fill="#a64c4b"/>
        <path id="Trazado_189324" data-name="Trazado 189324" d="M154.825,215.088l-.758.056a4.682,4.682,0,0,1-4.995-4.318l-1.05-14.439a4.682,4.682,0,0,1,4.317-5l.759-.055a4.682,4.682,0,0,1,4.995,4.318l3.049,13.726C161.327,211.941,157.386,214.9,154.825,215.088Z" transform="translate(-76.439 -148.383)" fill="#ffb27d"/>
        <path id="Trazado_189325" data-name="Trazado 189325" d="M148.834,207.608a12.782,12.782,0,0,0,10.63-4.749s-4.7,8.556-10.337,8.786Z" transform="translate(-76.684 -151.808)" fill="#ba4141"/>
        <path id="Trazado_189326" data-name="Trazado 189326" d="M163.043,207.315s5.935,8.7-6.626,14.111c0,0-5.056,4.456-5.576,9.752,0,0,4.3-2.865,6.776-4.413S178.439,215.784,163.043,207.315Z" transform="translate(-77.28 -153.131)" fill="#8c6df2"/>
        <ellipse id="Elipse_5361" data-name="Elipse 5361" cx="14.025" cy="7.95" rx="14.025" ry="7.95" transform="translate(61.507 54.436) rotate(-81.759)" fill="#ffb27d"/>
        <path id="Trazado_189327" data-name="Trazado 189327" d="M157.176,192.759c-3.518,5.714-14.912,7.574-17.694,2.425s1.923-15.428,5.44-21.141,8.625-6.172,11.406-1.024S160.694,187.044,157.176,192.759Z" transform="translate(-73.657 -141.884)" fill="#ffb27d"/>
        <path id="Trazado_189328" data-name="Trazado 189328" d="M156.125,176s-3.586,11.917,5.561,16.389c0,0,12.008-4.314,6.143-17.471-5.17-11.6-17.871-5.783-17.871-5.783Z" transform="translate(-77.018 -141.363)" fill="#a64c4b"/>
        <path id="Trazado_189329" data-name="Trazado 189329" d="M136.6,183.374a11.8,11.8,0,0,1,8.974-6.039l-4.462-3.891S135.783,173.687,136.6,183.374Z" transform="translate(-73.025 -143.074)" fill="#a64c4b"/>
        <path id="Trazado_189330" data-name="Trazado 189330" d="M155.468,183.531c-1.6-3.229-6.125-4.014-12.972-2.86a5.77,5.77,0,0,1-3.108-.243c-4.6-1.849-4.251-7.906-4.251-7.906-.315-4.15,2.631-5.466,6.78-5.781l10.806-.822c6.119-.5,10.91,5.324,11.225,9.473l.153.7C164.416,180.242,159.618,183.216,155.468,183.531Z" transform="translate(-72.61 -140.831)" fill="#a64c4b"/>
        <path id="Trazado_189331" data-name="Trazado 189331" d="M165.964,200.67a2.954,2.954,0,1,1-.967-4.064A2.955,2.955,0,0,1,165.964,200.67Z" transform="translate(-80.146 -149.821)" fill="#ffb27d"/>
        <path id="Trazado_189332" data-name="Trazado 189332" d="M177.126,515.164l.7,8.337a49.859,49.859,0,0,0,1.461,7.069,6.017,6.017,0,0,0,5.132,3.758c2.553.174,7.684-4.341,5.854-9.944-1.595-4.883-3.321-10.029-3.321-10.029C183.348,516.009,180,516.582,177.126,515.164Z" transform="translate(-85.084 -244.299)" fill="#27427a"/>
        <path id="Trazado_189333" data-name="Trazado 189333" d="M173.39,357.568h0a3.889,3.889,0,0,0,5.395-1l4.2-6.11a3.89,3.89,0,0,0-.995-5.391h0a3.889,3.889,0,0,0-5.4.995l-4.2,6.111A3.889,3.889,0,0,0,173.39,357.568Z" transform="translate(-83.478 -193.832)" fill="#ffb27d"/>
        <path id="Trazado_189334" data-name="Trazado 189334" d="M165.441,243.082s30.726,23.945,27.241,32.292-18.964,34.612-18.964,34.612l9.791,5.539s31.446-33.843,28.845-43.763c-3.257-12.419-27.116-41.941-27.116-41.941Z" transform="translate(-81.615 -159.813)" fill="#f2f2f2"/>
        <path id="Trazado_189335" data-name="Trazado 189335" d="M48.98,149.331l-2.767.659s9.641,55.5,18.76,60.187c6.169,3.173,21.514,3.784,30.8,3.847l-.041-8.1S76.1,206.6,69.31,203.715C63.35,201.179,51.13,158.27,48.98,149.331Z" transform="translate(-46.213 -135.914)" fill="#ccc"/>
        <g id="Grupo_132817" data-name="Grupo 132817" transform="translate(66.714 48.347)">
          <path id="Trazado_189336" data-name="Trazado 189336" d="M143.437,203.632h0c-1.289-.5-2.335-2.573-2.335-4.619l4.671,1.827C145.773,202.886,144.727,204.136,143.437,203.632Z" transform="translate(-141.102 -199.013)" fill="#fff"/>
        </g>
      </g>
    </g>
  </g>
  <rect id="Rectángulo_43931" data-name="Rectángulo 43931" width="207" height="264" fill="none"/>
  <g id="Elipse_5245" data-name="Elipse 5245" transform="translate(34.646 173.877)">
    <circle id="Elipse_5362" data-name="Elipse 5362" cx="20.849" cy="20.849" r="20.849" fill="none"/>
    <circle id="Elipse_5363" data-name="Elipse 5363" cx="19.737" cy="19.737" r="19.737" transform="translate(1.112 1.112)" fill="none" stroke="#fff" stroke-linecap="round" stroke-width="3.163" stroke-dasharray="2.372 6.326"/>
  </g>
</svg>
